Coordinates
nRows=9
nColumns=38

# SIMM Motion File Header:
name Coordinates
datacolumns 38
datarows 9
otherdata 1
range 0.41050000000000003000 0.41849999999999998000

Units are S.I. units (second, meters, Newtons, ...)
Angles are in degrees.

endheader
time	pelvis_tilt	pelvis_list	pelvis_rotation	pelvis_tx	pelvis_ty	pelvis_tz	hip_flexion_r	hip_adduction_r	hip_rotation_r	knee_angle_r	ankle_angle_r	subtalar_angle_r	mtp_angle_r	hip_flexion_l	hip_adduction_l	hip_rotation_l	knee_angle_l	ankle_angle_l	subtalar_angle_l	mtp_angle_l	lumbar_extension	lumbar_bending	lumbar_rotation	arm_flex_r	arm_add_r	arm_rot_r	elbow_flex_r	pro_sup_r	wrist_flex_r	wrist_dev_r	arm_flex_l	arm_add_l	arm_rot_l	elbow_flex_l	pro_sup_l	wrist_flex_l	wrist_dev_l
      0.41050000000000003000	     -3.36481188468436580000	     -3.80892279136009120000	     -5.78052465745929920000	      1.09776853371977420000	      0.94325029261381199000	     -0.42387156778953961000	      2.91123183398276100000	     10.43542604221376300000	      4.28375508443535310000	    -39.22671373604663400000	     27.36967074477690400000	     -0.00000000000001184855	      0.00000000000001400928	     33.71172592385706000000	      0.19321856901300766000	     -0.60392075312110660000	   -111.52228656554460000000	     12.26881982295843400000	      0.00000000000000198338	      0.00000000000000758559	    -17.57969375044750000000	      6.30641891247524630000	     15.81256283596294000000	    -19.78808649980312500000	    -27.41956757371502500000	    -19.22191774211977100000	    126.99827152274709000000	     95.75619725985239900000	     -0.00000000000000026388	     -0.00000000000000321453	    -39.67353590795109100000	    -19.06526680054013000000	     -2.50797224046694420000	    102.84312819948028000000	     90.55637634203172600000	     -0.00000000000000005866	     -0.00000000000000518570
      0.41150000000000003000	     -3.44050652320844550000	     -3.65249116040977520000	     -5.74773491325630030000	      1.09807147240720000000	      0.94345855487791797000	     -0.42383511687132758000	      2.47136476577779350000	     10.23077224920503900000	      4.36872328708327020000	    -38.84772978900716100000	     27.15750511637135400000	     -0.00000000000001215748	      0.00000000000001457082	     34.16213587769085100000	      0.31800804140205230000	     -0.58724384187756140000	   -111.21214860602922000000	     12.39904120188871900000	      0.00000000000000200636	      0.00000000000000772719	    -17.41604053585838200000	      6.11144143678568770000	     15.86981752070561300000	    -19.68755588697677100000	    -27.38699453960848700000	    -19.15205517329978200000	    127.32873787822162000000	     95.72956419334460100000	     -0.00000000000000027753	     -0.00000000000000325113	    -40.04560357864724600000	    -19.13009521416426000000	     -2.64395062592700600000	    103.17619996757136000000	     90.49564933293788700000	     -0.00000000000000006285	     -0.00000000000000519968
      0.41250000000000003000	     -3.51536719892506210000	     -3.49362708296649950000	     -5.71610095224288540000	      1.09838274433945560000	      0.94367485937046680000	     -0.42380006008453674000	      2.03049304284303570000	     10.02227246055319500000	      4.45275628942416630000	    -38.46515899979715400000	     26.93109528791960400000	     -0.00000000000001244746	      0.00000000000001518875	     34.60543659508609700000	      0.44534145661345365000	     -0.57574432938228060000	   -110.89134786673102000000	     12.52719521992145400000	      0.00000000000000202914	      0.00000000000000786570	    -17.25287621385599800000	      5.91328537790400870000	     15.92571539194150500000	    -19.58636407195373200000	    -27.35709858776434400000	    -19.07632767685690900000	    127.65760010143947000000	     95.69959528659876500000	     -0.00000000000000029017	     -0.00000000000000328880	    -40.42028222446677400000	    -19.18928678567448600000	     -2.78663810941966440000	    103.50886735161127000000	     90.44389486680844900000	     -0.00000000000000006603	     -0.00000000000000521879
      0.41350000000000003000	     -3.58934431036480020000	     -3.33234437122047210000	     -5.68558845354103240000	      1.09870229110997130000	      0.94389910361340257000	     -0.42376646443864641000	      1.58870776405169000000	      9.80995676605776620000	      4.53571568942852290000	    -38.07922537671805000000	     26.69048112736364000000	     -0.00000000000001274883	      0.00000000000001589152	     35.04152877625382000000	      0.57520208354127966000	     -0.56932989438073778000	   -110.55996664878799000000	     12.65317958859484700000	      0.00000000000000205078	      0.00000000000000801633	    -17.09026052282838700000	      5.71197701481612970000	     15.98022951034353100000	    -19.48445873888544000000	    -27.32989040334251400000	    -18.99474723336050600000	    127.98475918883068000000	     95.66662010258082200000	     -0.00000000000000030408	     -0.00000000000000332552	    -40.79750878685888400000	    -19.24275405053033300000	     -2.93599897349098480000	    103.84096011103604000000	     90.40088941581528600000	     -0.00000000000000006961	     -0.00000000000000525034
      0.41449999999999998000	     -3.66241087224991270000	     -3.16866214932005750000	     -5.65616098609104160000	      1.09903003566531780000	      0.94413113857892350000	     -0.42373439654908512000	      1.14612926252417440000	      9.59386508975912200000	      4.61745289324626110000	    -37.69016316803734400000	     26.43571752694650100000	     -0.00000000000001307056	      0.00000000000001668015	     35.47034735698031200000	      0.70756938540079151000	     -0.56789365488458443000	   -110.21809761797003000000	     12.77688784925055300000	      0.00000000000000207194	      0.00000000000000816391	    -16.92822871980369500000	      5.50755158734601390000	     16.03333767524236100000	    -19.38180236975609800000	    -27.30537452722354500000	    -18.90733986915114800000	    128.31012919888812000000	     95.63096250634136200000	     -0.00000000000000031893	     -0.00000000000000336293	    -41.17721640273664000000	    -19.29042226730386000000	     -3.09198235037808060000	    104.17231911341035000000	     90.36638367767525900000	     -0.00000000000000007397	     -0.00000000000000528833
      0.41549999999999998000	     -3.73452124239568750000	     -3.00260365774335100000	     -5.62777926346475790000	      1.09936589606910510000	      0.94437084309572139000	     -0.42370392381808181000	      0.70285524957485324000	      9.37404065012586510000	      4.69781209326960350000	    -37.29820219263253000000	     26.16687145135211200000	     -0.00000000000001335961	      0.00000000000001748989	     35.89180958876396900000	      0.84242381942696243000	     -0.57131845073479903000	   -109.86583490912251000000	     12.89821629573993000000	      0.00000000000000209356	      0.00000000000000829422	    -16.76683819553125000000	      5.30004661285880910000	     16.08502305563105100000	    -19.27836471679478000000	    -27.28355281530231500000	    -18.81414549656195600000	    128.63363859965926000000	     95.59293543053159700000	     -0.00000000000000033397	     -0.00000000000000340136	    -41.55932874910307400000	    -19.33223023831914500000	     -3.25452241563700450000	    104.50280047411349000000	     90.34010351816103000000	     -0.00000000000000007729	     -0.00000000000000534079
      0.41649999999999998000	     -3.80564249119796210000	     -2.83419761084871660000	     -5.60040252759311490000	      1.09970977476251090000	      0.94461806848219909000	     -0.42367511333564800000	      0.25899953467298831000	      9.15053530573179330000	      4.77662863094091430000	    -36.90357764707900400000	     25.88402223335991100000	     -0.00000000000001361267	      0.00000000000001836563	     36.30585412761659100000	      0.97974285927770710000	     -0.57947402654263525000	   -109.50328048540911000000	     13.01706003823819600000	      0.00000000000000211540	      0.00000000000000841222	    -16.60613335791309100000	      5.08950736658096490000	     16.13527443982017900000	    -19.17412809247863900000	    -27.26442257734014200000	    -18.71521715099799700000	    128.95522781715036000000	     95.55284144804149100000	     -0.00000000000000034714	     -0.00000000000000344116	    -41.94376401386395500000	    -19.36812939904044500000	     -3.42353896890748330000	    104.83227133888545000000	     90.32175376287973700000	     -0.00000000000000008139	     -0.00000000000000540789
      0.41749999999999998000	     -3.87575242979618070000	     -2.66347849123126950000	     -5.57398913732821730000	      1.10006155901491760000	      0.94487264285363071000	     -0.42364803144516278000	     -0.18531078456909239000	      8.92340960833854880000	      4.85372997679444930000	    -36.50652889765798600000	     25.58726060876007200000	     -0.00000000000001385786	      0.00000000000001925582	     36.71243825690948600000	      1.11950076326335110000	     -0.59221770522605544000	   -109.13054332238615000000	     13.13331397463294300000	      0.00000000000000213826	      0.00000000000000851343	    -16.44614802967224800000	      4.87598678587768660000	     16.18408702720233400000	    -19.06908685084983200000	    -27.24797716054038000000	    -18.61062049556363000000	    129.27484854904588000000	     95.51097069308825400000	     -0.00000000000000035871	     -0.00000000000000348176	    -42.33043448308998100000	    -19.39808367192250700000	     -3.59893784770208970000	    105.16060952573685000000	     90.31102068979556900000	     -0.00000000000000008550	     -0.00000000000000547382
      0.41849999999999998000	     -3.94483839826633180000	     -2.49048685907686500000	     -5.54849676384303160000	      1.10042112120820780000	      0.94513437396479361000	     -0.42362274392077470000	     -0.62993725062673911000	      8.69273292877743840000	      4.92893609304179670000	    -36.10729826200297800000	     25.27668764628136300000	     -0.00000000000001408142	      0.00000000000002013452	     37.11153618531655200000	      1.26166855528494510000	     -0.60939458230860777000	   -108.74773888824896000000	     13.24687364720065100000	      0.00000000000000216225	      0.00000000000000860841	    -16.28690695143629700000	      4.65954561951495010000	     16.23146272682230400000	    -18.96324695900854400000	    -27.23420646269801200000	    -18.50043331723008700000	    129.59246304555614000000	     95.46759883843738200000	     -0.00000000000000036950	     -0.00000000000000352228	    -42.71924624375291300000	    -19.42206931265108600000	     -3.78061133795105420000	    105.48770306217537000000	     90.30757454121942400000	     -0.00000000000000008793	     -0.00000000000000553632
